<?xml version="1.0" encoding="UTF-8" standalone="no"?>
<!-- Created with Inkscape (http://www.inkscape.org/) -->

<svg
   xmlns:dc="http://purl.org/dc/elements/1.1/"
   xmlns:cc="http://creativecommons.org/ns#"
   xmlns:rdf="http://www.w3.org/1999/02/22-rdf-syntax-ns#"
   xmlns:svg="http://www.w3.org/2000/svg"
   xmlns="http://www.w3.org/2000/svg"
   xmlns:sodipodi="http://sodipodi.sourceforge.net/DTD/sodipodi-0.dtd"
   xmlns:inkscape="http://www.inkscape.org/namespaces/inkscape"
   width="10.914756mm"
   height="10.914745mm"
   viewBox="0 0 10.914756 10.914745"
   version="1.1"
   id="svg5685"
   inkscape:version="0.92.3 (2405546, 2018-03-11)"
   sodipodi:docname="list_3.svg">
  <defs
     id="defs5679" />
  <sodipodi:namedview
     id="base"
     pagecolor="#ffffff"
     bordercolor="#666666"
     borderopacity="1.0"
     inkscape:pageopacity="0.0"
     inkscape:pageshadow="2"
     inkscape:zoom="1.8580888"
     inkscape:cx="-2.6767968"
     inkscape:cy="92.815385"
     inkscape:document-units="mm"
     inkscape:current-layer="g1624"
     showgrid="false"
     fit-margin-top="0"
     fit-margin-left="0"
     fit-margin-right="0"
     fit-margin-bottom="0"
     inkscape:window-width="1366"
     inkscape:window-height="705"
     inkscape:window-x="-8"
     inkscape:window-y="-8"
     inkscape:window-maximized="1" />
  <metadata
     id="metadata5682">
    <rdf:RDF>
      <cc:Work
         rdf:about="">
        <dc:format>image/svg+xml</dc:format>
        <dc:type
           rdf:resource="http://purl.org/dc/dcmitype/StillImage" />
        <dc:title />
      </cc:Work>
    </rdf:RDF>
  </metadata>
  <g
     inkscape:label="Layer 1"
     inkscape:groupmode="layer"
     id="layer1"
     transform="translate(-59.710816,-221.30224)">
    <g
       transform="matrix(0.69454996,0,0,0.69454927,50.798049,-191.44744)"
       id="g1624">
      <circle
         style="color:#000000;display:inline;overflow:visible;visibility:visible;opacity:1;fill:#b9ffc2;fill-opacity:1;stroke:#324762;stroke-width:0.76362962;stroke-linecap:round;stroke-linejoin:miter;stroke-miterlimit:4;stroke-dasharray:none;stroke-dashoffset:0;stroke-opacity:1;marker:none;paint-order:fill markers stroke;enable-background:accumulate"
         id="circle1614"
         cx="20.689865"
         cy="602.12726"
         r="7.4756155" />
      <g
         aria-label="3"
         transform="matrix(0.26458333,0,0,0.26458333,-0.74835473,93.799995)"
         style="font-style:normal;font-variant:normal;font-weight:normal;font-stretch:normal;font-size:42.66666794px;line-height:90.59999585%;font-family:'Open Sans';-inkscape-font-specification:'Open Sans';text-align:center;letter-spacing:0px;word-spacing:0px;text-anchor:middle;fill:#324762;fill-opacity:1;stroke:none;stroke-width:1px;stroke-linecap:butt;stroke-linejoin:miter;stroke-opacity:1"
         id="flowRoot1622">
        <path
           d="m 89.75,1913.1744 q 0,2.9167 -1.645833,4.7709 -1.625,1.8541 -4.625,2.4791 v 0.1667 q 3.666667,0.4583 5.4375,2.3333 1.770833,1.875 1.770833,4.9167 0,4.3542 -3.020833,6.7083 -3.020834,2.3334 -8.583334,2.3334 -2.416666,0 -4.4375,-0.375 -2,-0.3542 -3.895833,-1.2709 v -3.2916 q 1.979166,0.9791 4.208333,1.5 2.25,0.5 4.25,0.5 7.895834,0 7.895834,-6.1875 0,-5.5417 -8.708334,-5.5417 h -3 v -2.9792 H 78.4375 q 3.5625,0 5.645833,-1.5625 2.083334,-1.5833 2.083334,-4.375 0,-2.2291 -1.541667,-3.5 -1.520833,-1.2708 -4.145833,-1.2708 -2,0 -3.770834,0.5417 -1.770833,0.5416 -4.041667,2 l -1.75,-2.3334 q 1.875,-1.4791 4.3125,-2.3125 2.458334,-0.8541 5.166667,-0.8541 4.4375,0 6.895834,2.0416 2.458333,2.0209 2.458333,5.5625 z"
           style="font-style:normal;font-variant:normal;font-weight:normal;font-stretch:normal;font-family:'Open Sans';-inkscape-font-specification:'Open Sans';fill:#324762;fill-opacity:1"
           id="path9627" />
      </g>
    </g>
  </g>
</svg>
